<!DOCTYPE svg PUBLIC "-//W3C//DTD SVG 1.1//EN" "http://www.w3.org/Graphics/SVG/1.1/DTD/svg11.dtd">
<!-- Uploaded to: SVG Repo, www.svgrepo.com, Transformed by: SVG Repo Mixer Tools -->
<svg width="800px" height="800px" viewBox="-4.8 -4.8 57.60 57.60" xmlns="http://www.w3.org/2000/svg" fill="#ec0909" stroke="#ec0909" stroke-width="2.112">
<g id="SVGRepo_bgCarrier" stroke-width="0">
<path transform="translate(-4.8, -4.8), scale(3.5999999999999996)" fill="#e0f0f5" d="M9.166.33a2.25 2.25 0 00-2.332 0l-5.25 3.182A2.25 2.25 0 00.5 5.436v5.128a2.25 2.25 0 001.084 1.924l5.25 3.182a2.25 2.25 0 002.332 0l5.25-3.182a2.25 2.25 0 001.084-1.924V5.436a2.25 2.25 0 00-1.084-1.924L9.166.33z" strokewidth="0"/>
</g>
<g id="SVGRepo_tracerCarrier" stroke-linecap="round" stroke-linejoin="round" stroke="#CCCCCC" stroke-width="1.9200000000000004">
<defs>
<style>.a{fill:none;stroke:#ff0000;stroke-linecap:round;stroke-linejoin:round;}</style>
</defs>
<path class="a" d="M12.0734,25.33,5.2639,39.3441c-.3716.7646-.6755.6978-.6835-.1493-.0929-9.8255-.5778-19.6959,2.6412-29.1405a.8588.8588,0,0,1,1.5759-.3119C15.24,17.312,17.4554,31.92,21.9945,34.58a3.9645,3.9645,0,0,0,2.995.0865c5.395-2.4588,7.7566-17.84,13.7594-25.0986a.8389.8389,0,0,1,1.55.3115c3.467,10.3827,3.4854,19.92,2.9372,29.317-.0493.8457-.4074.917-.794.16L35.2808,25.33"/>
<path class="a" d="M14.0994,18.9985s4.16-8.4587,7.7744-10.5366a3.9618,3.9618,0,0,1,2.98-.1c4.1038,1.8625,8.1307,10.3807,8.1307,10.3807"/>
</g>
<g id="SVGRepo_iconCarrier">
<defs>
<style>.a{fill:none;stroke:#ff0000;stroke-linecap:round;stroke-linejoin:round;}</style>
</defs>
<path class="a" d="M12.0734,25.33,5.2639,39.3441c-.3716.7646-.6755.6978-.6835-.1493-.0929-9.8255-.5778-19.6959,2.6412-29.1405a.8588.8588,0,0,1,1.5759-.3119C15.24,17.312,17.4554,31.92,21.9945,34.58a3.9645,3.9645,0,0,0,2.995.0865c5.395-2.4588,7.7566-17.84,13.7594-25.0986a.8389.8389,0,0,1,1.55.3115c3.467,10.3827,3.4854,19.92,2.9372,29.317-.0493.8457-.4074.917-.794.16L35.2808,25.33"/>
<path class="a" d="M14.0994,18.9985s4.16-8.4587,7.7744-10.5366a3.9618,3.9618,0,0,1,2.98-.1c4.1038,1.8625,8.1307,10.3807,8.1307,10.3807"/>
</g>
</svg>